<svg class="animated" id="freepik_stories-family" xmlns="http://www.w3.org/2000/svg" viewBox="0 0 500 500" version="1.1" xmlns:xlink="http://www.w3.org/1999/xlink" xmlns:svgjs="http://svgjs.com/svgjs"><style>svg#freepik_stories-family:not(.animated) .animable {opacity: 0;}svg#freepik_stories-family.animated #freepik--Stroller--inject-5 {animation: 3s Infinite  linear wind;animation-delay: 0s;}svg#freepik_stories-family.animated #freepik--character-2--inject-5 {animation: 3s Infinite  linear wind;animation-delay: 0s;}svg#freepik_stories-family.animated #freepik--character-1--inject-5 {animation: 3s Infinite  linear wind;animation-delay: 0s;}            @keyframes wind {                0% {                    transform: rotate( 0deg );                }                25% {                    transform: rotate( 1deg );                }                75% {                    transform: rotate( -1deg );                }            }        </style><g id="freepik--background-complete--inject-5" class="animable animator-active" style="transform-origin: 250px 226.87px;"><rect y="382.4" width="500" height="0.25" style="fill: rgb(235, 235, 235); transform-origin: 250px 382.525px;" id="el6k75m4uez3g" class="animable"></rect><rect x="52.46" y="398.49" width="33.21" height="0.25" style="fill: rgb(235, 235, 235); transform-origin: 69.065px 398.615px;" id="elet4bwejt3ta" class="animable"></rect><rect x="146.33" y="397.5" width="54.1" height="0.25" style="fill: rgb(235, 235, 235); transform-origin: 173.38px 397.625px;" id="elqqpsfatr4ur" class="animable"></rect><rect x="86.67" y="389.21" width="19.11" height="0.25" style="fill: rgb(235, 235, 235); transform-origin: 96.225px 389.335px;" id="elq55plro1unn" class="animable"></rect><rect x="435.12" y="390.89" width="14.78" height="0.25" style="fill: rgb(235, 235, 235); transform-origin: 442.51px 391.015px;" id="elgryobg9qqlj" class="animable"></rect><rect x="391.47" y="390.89" width="34.74" height="0.25" style="fill: rgb(235, 235, 235); transform-origin: 408.84px 391.015px;" id="el7j737nec432" class="animable"></rect><rect x="267.33" y="395.11" width="45.45" height="0.25" style="fill: rgb(235, 235, 235); transform-origin: 290.055px 395.235px;" id="el1j0xw0uh24z" class="animable"></rect><path d="M237,337.8H43.91a5.71,5.71,0,0,1-5.7-5.71V60.66A5.71,5.71,0,0,1,43.91,55H237a5.71,5.71,0,0,1,5.71,5.71V332.09A5.71,5.71,0,0,1,237,337.8ZM43.91,55.2a5.46,5.46,0,0,0-5.45,5.46V332.09a5.46,5.46,0,0,0,5.45,5.46H237a5.47,5.47,0,0,0,5.46-5.46V60.66A5.47,5.47,0,0,0,237,55.2Z" style="fill: rgb(235, 235, 235); transform-origin: 140.46px 196.4px;" id="elwptt1731auq" class="animable"></path><path d="M453.31,337.8H260.21a5.72,5.72,0,0,1-5.71-5.71V60.66A5.72,5.72,0,0,1,260.21,55h193.1A5.71,5.71,0,0,1,459,60.66V332.09A5.71,5.71,0,0,1,453.31,337.8ZM260.21,55.2a5.47,5.47,0,0,0-5.46,5.46V332.09a5.47,5.47,0,0,0,5.46,5.46h193.1a5.47,5.47,0,0,0,5.46-5.46V60.66a5.47,5.47,0,0,0-5.46-5.46Z" style="fill: rgb(235, 235, 235); transform-origin: 356.75px 196.4px;" id="elgf6l2eas0yt" class="animable"></path><path d="M301.15,260.63c11.22-.12,43.31-13.35,42.33-5.65s28.07,2.09,14.22,19-20.65,8.16-29.42,14.66-44.65,12.78-41.1-1.65S265.71,261,301.15,260.63Z" style="fill: rgb(224, 224, 224); transform-origin: 321.67px 274.165px;" id="elz0b0ax5udkp" class="animable"></path><path d="M385.72,234c-11.42,1.19-43.45-12.78-42.82-2.5s-28.67,6.24-15.37,27.41,20.62,8.52,29.25,16.24,44.83,11.84,41.9-7.23S421.77,230.24,385.72,234Z" style="fill: rgb(224, 224, 224); transform-origin: 364.551px 254.658px;" id="elk4xd1qo9t89" class="animable"></path><polygon points="341.16 241.07 352.55 241.07 350.35 262.45 348.74 298.35 349.87 327.05 346.14 344.05 343.63 382.4 320.74 382.4 334.62 328.39 335.67 299.14 336.39 271.95 341.16 241.07" style="fill: rgb(235, 235, 235); transform-origin: 336.645px 311.735px;" id="elt2h27edjal" class="animable"></polygon><polygon points="340.13 281.62 331.65 261.96 327.06 243.55 334.15 259.78 343.17 276.61 340.13 281.62" style="fill: rgb(235, 235, 235); transform-origin: 335.115px 262.585px;" id="el3yox1t9toty" class="animable"></polygon><polygon points="328.47 375.52 315.71 382.4 332.58 382.4 328.47 375.52" style="fill: rgb(235, 235, 235); transform-origin: 324.145px 378.96px;" id="el1udg70haqme" class="animable"></polygon><path d="M342.55,235.61c-9.68-3.93-27.88-29.7-32.68-20.68s-26-7.12-26.33,16.65,12,16.19,14.83,26.49,29.46,29.5,37,12S373.09,248,342.55,235.61Z" style="fill: rgb(224, 224, 224); transform-origin: 319.741px 245.088px;" id="elywv5z8esys" class="animable"></path><path d="M359.87,201.06c7.73,7.3,40.31,15.93,33.38,22.62s17.39,20.57-5.78,27.53-20.68-5.88-31.94-5.49-40.75-17.36-26.6-28.77S335.45,178,359.87,201.06Z" style="fill: rgb(224, 224, 224); transform-origin: 361.447px 222.704px;" id="el4y6t8cd1xpt" class="animable"></path><polygon points="349.87 327.05 377 267.74 375.08 263.48 364.55 282.33 346.7 306.39 349.87 327.05" style="fill: rgb(235, 235, 235); transform-origin: 361.85px 295.265px;" id="elez2nimvq0bo" class="animable"></polygon><path d="M110.72,94.9c3.4-.07,7.72,1.2,11.79,3.26-6.68-8.76-4.44-15.59,5.92-15.81,10.15-.22,24.72,6,34.8,14.36-1.35-4.38,1.15-7.39,7.19-7.52,8.48-.19,21,5.4,28.75,12.69l-91.35,1.75C104,98.81,105.07,95,110.72,94.9Z" style="fill: rgb(240, 240, 240); transform-origin: 152.367px 92.9872px;" id="elneo7jmlcmw" class="animable"></path><path d="M164.56,382.4H44.24c-2.24-15.44,1-27,8.11-27.13,4.48,0,9.57,4.5,14,11.71-4.77-30,1.26-52.94,14.93-53.09,13.4-.13,29.68,21.62,39.07,50.62.22-14.89,4.87-24.93,12.85-25C144.09,339.38,157.53,358.11,164.56,382.4Z" style="fill: rgb(245, 245, 245); transform-origin: 104.049px 348.145px;" id="elm98bg2mq1f" class="animable"></path><path d="M53.37,163.19a13.56,13.56,0,0,1,6,1.65c-3.38-4.43-2.25-7.88,3-8s12.51,3,17.61,7.27c-.68-2.22.58-3.74,3.64-3.81,4.28-.09,10.6,2.73,14.54,6.42l-46.21.89C50,165.17,50.52,163.25,53.37,163.19Z" style="fill: rgb(240, 240, 240); transform-origin: 74.4733px 162.223px;" id="elukt49cca2e" class="animable"></path><path d="M328.3,84.06a16.48,16.48,0,0,1,4.6.65c-2.33-5.47.3-9.35,7.51-9.51,6.61-.14,15.42,2.89,23.06,7.52.58-2,2.71-3.3,6.3-3.37,4.46-.09,10.21,1.67,15.53,4.49a5.68,5.68,0,0,1,3.36-.93c3.71-.08,8.71,1.71,12.91,4.39l-77.42,1.48C323.17,86.05,324.61,84.15,328.3,84.06Z" style="fill: rgb(245, 245, 245); transform-origin: 362.71px 81.9877px;" id="eld5vhhvvvpar" class="animable"></path><path d="M232,174.14c-9.95,8.7-51.36,16.11-42.76,25.78s-22.47,25,6.68,37,26.3-5.23,40.52-3.35,52-17.93,34.32-34.71S263.46,146.68,232,174.14Z" style="fill: rgb(230, 230, 230); transform-origin: 229.261px 202.619px;" id="elc62npjbhz2c" class="animable"></path><path d="M142.45,160.39c14.34,5.65,57.61-.07,55,12.5s35.43,18.23,14.77,39.74-27.78,3.09-40.12,9.55-59.21-1.6-52.13-24.27S97.18,142.55,142.45,160.39Z" style="fill: rgb(235, 235, 235); transform-origin: 167.579px 189.8px;" id="eld7n1xapm7s" class="animable"></path><polygon points="203.74 166.05 221.84 167.26 226.18 201.66 236.76 259.63 238.63 296.27 244.41 325.11 262.4 382.4 225.95 382.4 218.44 292.35 216.3 259.53 207.47 215.57 203.74 166.05" style="fill: rgb(245, 245, 245); transform-origin: 233.07px 274.225px;" id="el71ix137eema" class="animable"></polygon><polygon points="216.97 231.63 196.28 198.88 182.26 168.57 199.47 195.62 219.95 223.82 216.97 231.63" style="fill: rgb(245, 245, 245); transform-origin: 201.105px 200.1px;" id="elpn1vf66fgk" class="animable"></polygon><polygon points="226.66 366.1 217.96 382.4 228.1 382.4 226.66 366.1" style="fill: rgb(245, 245, 245); transform-origin: 223.03px 374.25px;" id="el2e3eyp9efpc" class="animable"></polygon><path d="M246.35,150.93c9.61,4.12,38.45-.34,36.78,9s23.76,13.36,10.1,29.43-18.52,2.44-26.71,7.29-39.52-.89-34.94-17.76S216,137.91,246.35,150.93Z" style="fill: rgb(230, 230, 230); transform-origin: 263.241px 172.764px;" id="elts96mxcrlpr" class="animable"></path><path d="M212.59,123.58c-15.49,4.59-69-7.59-62.15,7.12s-37,16.2-5.84,43.48,34.2,7.15,50.92,16.15,70.44,5.89,55.19-21S261.49,109.1,212.59,123.58Z" style="fill: rgb(224, 224, 224); transform-origin: 193.347px 157.471px;" id="el7u3zreo1r0n" class="animable"></path><polygon points="233.61 243.59 255.88 218.18 263.75 197.98 250.62 214.35 227.75 235.2 233.61 243.59" style="fill: rgb(245, 245, 245); transform-origin: 245.75px 220.785px;" id="elpex9flqid7i" class="animable"></polygon><polygon points="135.14 321.39 138.1 321.39 232.46 321.39 235.42 321.39 232.89 337.64 229.93 337.64 135.57 337.64 132.61 337.64 135.14 321.39" style="fill: rgb(224, 224, 224); transform-origin: 184.015px 329.515px;" id="elrc4cyvnn3k" class="animable"></polygon><polygon points="131.52 344.66 134.48 344.66 228.84 344.66 231.8 344.66 230.71 351.67 227.75 351.67 133.39 351.67 130.43 351.67 131.52 344.66" style="fill: rgb(224, 224, 224); transform-origin: 181.115px 348.165px;" id="elkh1pjky54wc" class="animable"></polygon><polygon points="119.45 356.29 133.45 356.29 216.77 356.29 230.77 356.29 230.36 359.11 216.37 359.11 133.04 359.11 119.05 359.11 119.45 356.29" style="fill: rgb(224, 224, 224); transform-origin: 174.91px 357.7px;" id="eladtwuy5g9b7" class="animable"></polygon><polygon points="202.35 382.4 204.1 382.4 211.52 359.11 208.41 359.11 202.35 382.4" style="fill: rgb(230, 230, 230); transform-origin: 206.935px 370.755px;" id="elphjfh9bc2ji" class="animable"></polygon><polygon points="114.33 382.4 116.09 382.4 123.5 359.11 120.39 359.11 114.33 382.4" style="fill: rgb(230, 230, 230); transform-origin: 118.915px 370.755px;" id="elgfal0mskw15" class="animable"></polygon><polygon points="140.19 319.89 141.94 319.89 136.15 359.11 142.21 382.4 140.45 382.4 133.04 359.11 140.19 319.89" style="fill: rgb(230, 230, 230); transform-origin: 137.625px 351.145px;" id="el6a7yuy1ke" class="animable"></polygon><polygon points="227.8 319.89 229.56 319.89 224.16 359.11 230.23 382.4 228.47 382.4 221.06 359.11 227.8 319.89" style="fill: rgb(230, 230, 230); transform-origin: 225.645px 351.145px;" id="el2mu1vpzvsbq" class="animable"></polygon></g><g id="freepik--Shadow--inject-5" class="animable" style="transform-origin: 250px 416.24px;"><ellipse id="freepik--path--inject-5" cx="250" cy="416.24" rx="193.89" ry="11.32" style="fill: rgb(245, 245, 245); transform-origin: 250px 416.24px;" class="animable"></ellipse></g><g id="freepik--Stroller--inject-5" class="animable" style="transform-origin: 160.342px 298.39px;"><path d="M116.24,402.3a1.57,1.57,0,0,1-.32-3.11l43.19-8.93,59.38-177.19a1.57,1.57,0,1,1,3,1L161.8,392.12a1.57,1.57,0,0,1-1.17,1l-44.07,9.11A1.22,1.22,0,0,1,116.24,402.3Z" style="fill: rgb(38, 50, 56); transform-origin: 168.113px 307.144px;" id="elx1vugd6phcp" class="animable"></path><path d="M172.59,245.12s16.4-11,21.91-18.36c3.76-5,18.18,8.9,18.18,8.9l-3.36,4.24s-6.37-.34-9.53-2.78c-.67,5.33-8.81,12.48-8.81,12.48Z" style="fill: rgb(255, 139, 123); transform-origin: 192.635px 237.637px;" id="el4stbz9v6yry" class="animable"></path><path d="M208.72,239.37c.47,1.42,2,4.44,3.59,2.91,2.92-2.81,6.24-3,7.76-4.33s1.69-3.52-.56-2.53-4.63.26-8.18-1C209,234.92,208.72,239.37,208.72,239.37Z" style="fill: rgb(255, 139, 123); transform-origin: 214.964px 238.561px;" id="elc9yky7cxjfa" class="animable"></path><path d="M158.41,242.28s16.4-11,21.91-18.37c3.76-5,18.18,8.91,18.18,8.91l-3.36,4.24s-6.38-.35-9.53-2.78c-.67,5.33-8.81,12.47-8.81,12.47Z" style="fill: rgb(255, 139, 123); transform-origin: 178.455px 234.788px;" id="elw0f3ubmu1b" class="animable"></path><path d="M194.54,236.53c.47,1.41,2,4.44,3.59,2.91,2.92-2.82,6.24-3,7.76-4.34s1.68-3.51-.56-2.53-4.64.26-8.18-1C194.78,232.08,194.54,236.53,194.54,236.53Z" style="fill: rgb(255, 139, 123); transform-origin: 200.782px 235.715px;" id="el02h7ka2dsle1" class="animable"></path><path d="M148.22,247.45c8.51-12.38,33-23.55,44.38-16.4s28,7.08,24,16.4Z" style="fill: rgb(199, 140, 208); transform-origin: 182.714px 238.129px;" id="elnudpdl8839l" class="animable"></path><g id="elu8886z649b7"><path d="M148.22,247.45c8.51-12.38,33-23.55,44.38-16.4s28,7.08,24,16.4Z" style="fill: rgb(255, 255, 255); opacity: 0.3; transform-origin: 182.714px 238.129px;" class="animable"></path></g><polygon points="160.31 391.62 172.23 356.06 105.54 364.68 117.4 400.73 160.31 391.62" style="fill: rgb(199, 140, 208); transform-origin: 138.885px 378.395px;" id="elac1enucumvi" class="animable"></polygon><g id="eld8whgb6feak"><polygon points="132.63 397.49 133.98 361 105.54 364.68 117.4 400.73 132.63 397.49" style="opacity: 0.2; transform-origin: 119.76px 380.865px;" class="animable"></polygon></g><path d="M114.48,182.11l-.16-1a72.8,72.8,0,0,1,7.54-.8l0,1A71,71,0,0,0,114.48,182.11Z" style="fill: rgb(199, 140, 208); transform-origin: 118.09px 181.21px;" id="elc76hm320sq" class="animable"></path><path d="M143.5,182.82a96.43,96.43,0,0,0-17.16-1.62v-1a96.6,96.6,0,0,1,17.34,1.64Z" style="fill: rgb(199, 140, 208); transform-origin: 135.01px 181.51px;" id="elz5i9ezewwib" class="animable"></path><path d="M122.05,183.82c-12.76.69-23,4.46-30.41,10.52-16.51,13.53-18.83,38.47-3.17,66.17l98.06-5.32-13-60C156.33,187.2,138.36,182.93,122.05,183.82Z" style="fill: rgb(199, 140, 208); transform-origin: 132.217px 222.107px;" id="eludgts8srz7k" class="animable"></path><g id="el7nacuutzhhv"><path d="M91.64,194.34c-16.51,13.53-18.83,38.47-3.17,66.17l98.06-5.32Z" style="opacity: 0.2; transform-origin: 132.217px 227.425px;" class="animable"></path></g><path d="M114.74,384.87c8.09,0,14.64,7.1,14.64,15.86s-6.55,15.85-14.64,15.85-14.65-7.1-14.65-15.85S106.65,384.87,114.74,384.87Z" style="fill: rgb(38, 50, 56); transform-origin: 114.735px 400.725px;" id="ela2awinhja3e" class="animable"></path><path d="M117.4,392.26c4.32,0,7.82,3.79,7.82,8.47s-3.5,8.46-7.82,8.46-7.82-3.79-7.82-8.46S113.08,392.26,117.4,392.26Z" style="fill: rgb(255, 255, 255); transform-origin: 117.4px 400.725px;" id="eln0v6qp9gdxf" class="animable"></path><path d="M195.25,372.48c11.24,0,20.36,9.87,20.36,22s-9.12,22.05-20.36,22.05-20.38-9.87-20.38-22.05S184,372.48,195.25,372.48Z" style="fill: rgb(38, 50, 56); transform-origin: 195.24px 394.505px;" id="elqz4t7ebnupb" class="animable"></path><path d="M195.24,396.13a1.57,1.57,0,0,1-1.23-.59l-25.27-31.76a1.57,1.57,0,1,1,2.46-2l25.27,31.76a1.57,1.57,0,0,1-1.23,2.55Z" style="fill: rgb(38, 50, 56); transform-origin: 182.598px 378.662px;" id="elm57keloptos" class="animable"></path><path d="M199,382.75c6,0,10.87,5.28,10.87,11.78S205,406.3,199,406.3s-10.88-5.27-10.88-11.77S192.94,382.75,199,382.75Z" style="fill: rgb(255, 255, 255); transform-origin: 198.995px 394.525px;" id="el0rrnmcfwqhch" class="animable"></path><path d="M216.6,274.39H92.49A13.51,13.51,0,0,1,79,260.92h0a13.51,13.51,0,0,1,13.47-13.47H216.6a13.51,13.51,0,0,1,13.47,13.47h0A13.51,13.51,0,0,1,216.6,274.39Z" style="fill: rgb(199, 140, 208); transform-origin: 154.535px 260.92px;" id="elc0th82h25zm" class="animable"></path><g id="elf8xvnedjb16"><path d="M122.39,274.39H92.49A13.51,13.51,0,0,1,79,260.92h0a13.51,13.51,0,0,1,13.47-13.47h29.9a13.51,13.51,0,0,1,13.47,13.47h0A13.51,13.51,0,0,1,122.39,274.39Z" style="opacity: 0.2; transform-origin: 107.42px 260.92px;" class="animable"></path></g><path d="M186.53,255.19c.46-20.76-1.44-44.84-9.17-61.64,0,0-3.75-2.86-10.08-1.08C173.58,194,186.53,255.19,186.53,255.19Z" style="fill: rgb(38, 50, 56); transform-origin: 176.937px 223.538px;" id="eltdbwpo6bu5l" class="animable"></path><path d="M191.46,255.19a4.94,4.94,0,1,1-4.93-4.94A4.93,4.93,0,0,1,191.46,255.19Z" style="fill: rgb(255, 255, 255); transform-origin: 186.52px 255.19px;" id="elizut2347kes" class="animable"></path><path d="M189.65,255.19a2.66,2.66,0,1,1-2.66-2.66A2.66,2.66,0,0,1,189.65,255.19Z" style="fill: rgb(199, 140, 208); transform-origin: 186.99px 255.19px;" id="elty7xkfv9aho" class="animable"></path><path d="M241.21,215.14H198.75a1.57,1.57,0,0,1,0-3.14h42.46a1.57,1.57,0,0,1,0,3.14Z" style="fill: rgb(38, 50, 56); transform-origin: 219.98px 213.57px;" id="elgnrf48yhbbt" class="animable"></path><path d="M211.14,276H95.54a1.57,1.57,0,0,1,0-3.14h115.6a1.57,1.57,0,1,1,0,3.14Z" style="fill: rgb(38, 50, 56); transform-origin: 153.34px 274.43px;" id="el9428iits7nn" class="animable"></path><path d="M179.82,312.37a24.13,24.13,0,0,1-24.1-24.1,23.86,23.86,0,0,1,5.12-14.85,1.57,1.57,0,1,1,2.47,1.94,20.74,20.74,0,0,0-4.45,12.91,21,21,0,0,0,28.47,19.57,1.57,1.57,0,0,1,2,.91,1.56,1.56,0,0,1-.9,2A24,24,0,0,1,179.82,312.37Z" style="fill: rgb(38, 50, 56); transform-origin: 172.574px 292.595px;" id="ely4zslxpqxte" class="animable"></path></g><g id="freepik--character-2--inject-5" class="animable" style="transform-origin: 360.798px 263.474px;"><path d="M332.06,217.89c-5.78,1.69-6.7,9-4.9,12.27,0,0-7.32,10,6.63,9.06S338.51,216,332.06,217.89Z" style="fill: rgb(199, 140, 208); transform-origin: 333.158px 228.529px;" id="el6bcj8u301pi" class="animable"></path><g id="eloa79qgxudn"><path d="M332.06,217.89c-5.78,1.69-6.7,9-4.9,12.27,0,0-7.32,10,6.63,9.06S338.51,216,332.06,217.89Z" style="opacity: 0.2; transform-origin: 333.158px 228.529px;" class="animable"></path></g><path d="M341.91,138.09c-4.86-7.19-6.18-24.84,7.49-23.76,1.28-7.08,21-3.08,24.25,9.5s-3.42,29.5-3.42,29.5S354.13,156.13,341.91,138.09Z" style="fill: rgb(38, 50, 56); transform-origin: 356.525px 132.169px;" id="el43x453ll0al" class="animable"></path><path d="M369.57,146.8c10.4,1.06,25.35,6.44,27.82,12.4s-2.89,8-2.89,8,9.57,5.72,6.44,13.74-12.22.84-12.22.84,1.26,8.41-13.75,6.47-11.92-36.91-11.92-36.91Z" style="fill: rgb(38, 50, 56); transform-origin: 382.178px 167.67px;" id="ellzdht6w043" class="animable"></path><path d="M360.43,152.24c2.2,3,4.46,2.62,9.79,1.41s7-4,6.5-7.26-3.43-5.43-3.58-3C369,147.61,355.72,145.9,360.43,152.24Z" style="fill: rgb(199, 140, 208); transform-origin: 368.119px 148.449px;" id="elljfnakrug48" class="animable"></path><path d="M343,412.07c8.1-.63,13.55-6.19,13-12.08-.31-3.25,10.07-3.54,10.07-3.54-1.64,10.07.42,11.51,1.1,14.11s.51,5.48-1.64,5.53c-2.57.07-3.77-.42-7-.3-3.74.15-7.79.29-14.43.3C341.47,416.1,339.4,412.35,343,412.07Z" style="fill: rgb(38, 50, 56); transform-origin: 354.298px 406.273px;" id="eltbiruodqf7o" class="animable"></path><path d="M331.16,222.33s1.45,47.21,8.32,82.77c1.63,30.09,15.86,96.26,15.86,96.26a22.55,22.55,0,0,0,10.77-.1s7.19-48.33,0-96.67c5.26-50.67,3.47-82.26,3.47-82.26Z" style="fill: rgb(199, 140, 208); transform-origin: 350.517px 312.147px;" id="elgdfzgdkalt9" class="animable"></path><g id="elsx2o90iuimq"><path d="M369.82,245.82c-.25,14.17-1.14,34.23-3.68,58.76.54,3.63,1,7.27,1.29,10.88C349.82,286.32,345.65,240.28,369.82,245.82Z" style="opacity: 0.2; transform-origin: 361.385px 280.411px;" class="animable"></path></g><path d="M427.87,396.49a47.45,47.45,0,0,1-7.46-10.59s-9.27,2.28-7.45,5c3.3,4.85,4.91,14.82.66,20.16-2.43,3.05,1.41,3.56,3.95,2.25,4-2.07,3.87-2.85,6-6.28,1.79-2.93,2.5-4.08,5-5.34C430.57,400.6,429.57,398.56,427.87,396.49Z" style="fill: rgb(38, 50, 56); transform-origin: 421.2px 399.943px;" id="elbvcan58ef3c" class="animable"></path><path d="M345.16,222.33s15.61,65.6,25.45,93.62c10.34,29.42,40.75,74.83,41.85,76.78,4.06-1.09,7.68-2.51,10.09-4.86,0,0-11.58-47.11-24.65-79.06-5-66.69-21.73-86.48-21.73-86.48Z" style="fill: rgb(199, 140, 208); transform-origin: 383.855px 307.53px;" id="elg0enxka7spm" class="animable"></path><path d="M303.77,160.88l0-3.91a8.11,8.11,0,0,0-1.12-4l-1.36-2.31a3.69,3.69,0,0,0-4.43-1.6l-2.52.92a3.67,3.67,0,0,0-2.18,4.76l.8,2.13s1.52,6.18,5.46,9.35l1.3-.57A7,7,0,0,0,303.77,160.88Z" style="fill: rgb(255, 181, 115); transform-origin: 297.844px 157.531px;" id="el46ha7dfryga" class="animable"></path><path d="M346.44,175.89l-.41.63-.35.5-.69,1c-.46.63-.94,1.21-1.42,1.81-1,1.17-2,2.28-3.06,3.36a46.34,46.34,0,0,1-7.15,5.91,36.22,36.22,0,0,1-8.79,4.35,29.65,29.65,0,0,1-5,1.21c-.86.12-1.73.22-2.62.26-.43,0-.87.05-1.32,0h-1.16l-.51,0a9.79,9.79,0,0,1-3.43-.84,11.3,11.3,0,0,1-2.19-1.29,14.33,14.33,0,0,1-2.54-2.48A26.91,26.91,0,0,1,303,186a55.74,55.74,0,0,1-3.35-8,91.86,91.86,0,0,1-3.81-15.89,4.05,4.05,0,0,1,7.57-2.52l.07.13c2.41,4.46,4.78,9.08,7.25,13.32a58.86,58.86,0,0,0,3.79,5.89,12.24,12.24,0,0,0,1.77,2c.23.19.42.27.33.16a3.27,3.27,0,0,0-2-.72h-.19l.16,0,.31-.05a4.58,4.58,0,0,0,.63-.1c.41-.07.83-.18,1.24-.29a19.26,19.26,0,0,0,2.5-.9,26.87,26.87,0,0,0,5-3,41.92,41.92,0,0,0,4.71-4.23c.76-.77,1.48-1.6,2.19-2.41l1-1.25L333,167l.45-.56a8.06,8.06,0,0,1,13,9.45Z" style="fill: rgb(255, 181, 115); transform-origin: 321.72px 176.203px;" id="elb5t4rhhekx4" class="animable"></path><path d="M329.32,176.37c.16,3.84-5.9,12.72,1.58,17.86-1.39,3.13-2.58,24.32.26,28.1,4.12,3,26.48,2.45,45,0,.78-7.66-3.43-23.53,1.73-48.27a9.87,9.87,0,0,0-8.67-11.84c-1.55-.15-3.2-.29-4.89-.37a126.26,126.26,0,0,0-17.73,0c-1.92.18-3.89.42-5.78.69A13.38,13.38,0,0,0,329.32,176.37Z" style="fill: rgb(38, 50, 56); transform-origin: 352.626px 192.959px;" id="elvsv6f61ljc" class="animable"></path><path d="M329.17,225.55h-.07a.51.51,0,0,1-.42-.57c3.8-26.54,28.61-55.66,40.28-63.18a.5.5,0,0,1,.69.15.49.49,0,0,1-.15.69c-11.54,7.44-36.07,36.23-39.83,62.48A.51.51,0,0,1,329.17,225.55Z" style="fill: rgb(199, 140, 208); transform-origin: 349.204px 193.635px;" id="elb8sfgwmhcum" class="animable"></path><path d="M364.88,141.89c-1.41,5.71-2.79,15-.54,20,0,0-8.42.38-19.18,9-5.07-7.44.79-8.9.79-8.9,4.48-1,5.18-6.49,5.18-10.74Z" style="fill: rgb(255, 181, 115); transform-origin: 353.987px 156.39px;" id="elm5erfncbaqk" class="animable"></path><g id="el81ib607qydc"><path d="M351.12,151.18,359,145.9a6.9,6.9,0,0,1-.7,3.47,14.8,14.8,0,0,1-7.57,6.78A24,24,0,0,0,351.12,151.18Z" style="opacity: 0.2; transform-origin: 354.871px 151.025px;" class="animable"></path></g><path d="M368.6,131.43c-2.23,9.28-3,13.25-8.47,17.24-8.27,6-18.95,1.26-19.49-8.48-.48-8.78,3.24-22.47,12.9-24.61S370.82,122.15,368.6,131.43Z" style="fill: rgb(255, 181, 115); transform-origin: 354.793px 133.289px;" id="el93cpogo9qmm" class="animable"></path><path d="M353.08,135.2c-.13.77-.65,1.31-1.14,1.23s-.8-.78-.66-1.55.65-1.31,1.14-1.22S353.22,134.44,353.08,135.2Z" style="fill: rgb(38, 50, 56); transform-origin: 352.18px 135.044px;" id="ely822fwlh9s" class="animable"></path><path d="M343.67,133.68c-.13.76-.65,1.31-1.15,1.22s-.79-.78-.66-1.54.65-1.32,1.15-1.23S343.81,132.91,343.67,133.68Z" style="fill: rgb(38, 50, 56); transform-origin: 342.767px 133.515px;" id="eleqo09flqlms" class="animable"></path><path d="M343.23,132.21l-1.75-.85S342.17,133,343.23,132.21Z" style="fill: rgb(38, 50, 56); transform-origin: 342.355px 131.893px;" id="el8fob7s67l8g" class="animable"></path><path d="M346,134.3a21.05,21.05,0,0,1-3.58,4.39,3.32,3.32,0,0,0,2.63,1Z" style="fill: rgb(237, 137, 62); transform-origin: 344.21px 137px;" id="elum3xoxv6ogl" class="animable"></path><path d="M350.5,143.38a7.57,7.57,0,0,1-1.3-.12.23.23,0,1,1,.08-.45,6.12,6.12,0,0,0,5.35-1.49.23.23,0,0,1,.32,0,.22.22,0,0,1,0,.32A6.33,6.33,0,0,1,350.5,143.38Z" style="fill: rgb(38, 50, 56); transform-origin: 352.002px 142.318px;" id="elbuxreqksbcd" class="animable"></path><path d="M369.27,140.07a6.12,6.12,0,0,1-3.75,3.35c-2.12.59-3.17-1.73-2.57-4.09.54-2.12,2.29-5,4.41-4.51S370.25,138,369.27,140.07Z" style="fill: rgb(255, 181, 115); transform-origin: 366.237px 139.139px;" id="ellr1nf2fq3n" class="animable"></path><path d="M355.78,130.88a.43.43,0,0,1-.27-.23,3.67,3.67,0,0,0-2.59-2,.47.47,0,0,1-.4-.5.46.46,0,0,1,.51-.4,4.51,4.51,0,0,1,3.29,2.54.46.46,0,0,1-.2.61A.45.45,0,0,1,355.78,130.88Z" style="fill: rgb(38, 50, 56); transform-origin: 354.443px 129.336px;" id="elbi3rtzr1716" class="animable"></path><path d="M341,129a.45.45,0,0,1-.2-.81,4.54,4.54,0,0,1,4.08-.81.46.46,0,0,1-.31.86,3.57,3.57,0,0,0-3.22.68A.48.48,0,0,1,341,129Z" style="fill: rgb(38, 50, 56); transform-origin: 342.875px 128.105px;" id="elccd92fy8gzj" class="animable"></path><path d="M352.64,133.74l-1.74-.85S351.58,134.49,352.64,133.74Z" style="fill: rgb(38, 50, 56); transform-origin: 351.77px 133.415px;" id="el3v9yeo71yx3" class="animable"></path><g id="elltei0hwrjnr"><path d="M377,178.86a122.33,122.33,0,0,0-1.64,15.9c-4.26-5.91-9.11-16.64-8.83-21.65Z" style="opacity: 0.2; transform-origin: 371.759px 183.935px;" class="animable"></path></g><path d="M350.62,195l-3.85-5.16-7.07,7.85s4.71,4.24,9.64,4.67l.71-1.19A6.92,6.92,0,0,0,350.62,195Z" style="fill: rgb(255, 181, 115); transform-origin: 345.397px 196.1px;" id="el2pumqw4398q" class="animable"></path><path d="M339.69,189.48l-2.1,3a3.08,3.08,0,0,0,.76,4.25l1.35.94,7.07-7.85-3.35-1.45A3,3,0,0,0,339.69,189.48Z" style="fill: rgb(255, 181, 115); transform-origin: 341.911px 192.892px;" id="elm8rgijky0dl" class="animable"></path><path d="M378.3,168.76c.37.9.63,1.58.92,2.36s.54,1.51.8,2.27c.52,1.51,1,3,1.4,4.58a80.81,80.81,0,0,1,2,9.5c.24,1.63.44,3.29.57,5s.15,3.44.1,5.23a30,30,0,0,1-2.47,11.54l-.12.27a6.85,6.85,0,0,1-1.4,2,10.61,10.61,0,0,1-4.68,2.64,12.12,12.12,0,0,1-3.72.41,20.16,20.16,0,0,1-5.16-.92,40.44,40.44,0,0,1-7.58-3.34,68.34,68.34,0,0,1-6.43-4.1,66.75,66.75,0,0,1-5.89-4.71,4.07,4.07,0,0,1,4.11-6.84l.13.05,6.5,2.34c2.16.76,4.3,1.49,6.39,2.1a37.39,37.39,0,0,0,5.87,1.33,5.37,5.37,0,0,0,1.89,0c.13,0,.1-.12-.21-.07a3.39,3.39,0,0,0-1.61.89l-1.52,2.27a19,19,0,0,0,.48-5.87,53.15,53.15,0,0,0-1-7.46c-.55-2.57-1.19-5.19-2-7.81-.37-1.31-.79-2.62-1.2-3.92l-.64-1.94-.61-1.8-.11-.31a8.08,8.08,0,0,1,15.12-5.67Z" style="fill: rgb(255, 181, 115); transform-origin: 364.714px 189.198px;" id="el83d71g00khg" class="animable"></path><path d="M353.1,195c-2.16-2.09-2.85-1.5-4.3,0s-3.52,6.66-2,8.12,4,3.92,6.33,4,2.92-8.7,3.67-10.37S354.35,196.21,353.1,195Z" style="fill: rgb(199, 140, 208); transform-origin: 351.59px 200.383px;" id="el43qjapa15tu" class="animable"></path><path d="M350.15,115.26c-.34,8.91,13.16,20.41,17.33,22.49s7.14-5.92,4.28-12.5S360.61,111.22,350.15,115.26Z" style="fill: rgb(38, 50, 56); transform-origin: 361.518px 126.101px;" id="eluubqlf9gt4" class="animable"></path><path d="M351.23,116.17a16.14,16.14,0,0,0,2.31,10.41s-5.1-3.16-6.69-7.87Z" style="fill: rgb(38, 50, 56); transform-origin: 350.195px 121.375px;" id="eluc3srx4c3rm" class="animable"></path></g><g id="freepik--character-1--inject-5" class="animable" style="transform-origin: 268.184px 250.317px;"><path d="M275.37,273.2c-1.58,11.35-.21,23.34-.24,35.12.65,11.62,3.36,11.47-.12,24.19l-20.87.32c-4.55-7.41-6.39-12.05-6.67-21.39-.74-25.7-3.62-94.21-3.62-94.21l18.54-.32,24.43-.41A482.65,482.65,0,0,0,275.37,273.2Z" style="fill: rgb(38, 50, 56); transform-origin: 265.335px 274.665px;" id="eli1779idh6wd" class="animable"></path><g id="el9djvtqyt9yo"><path d="M281.76,237.51c-16,5.33-13.66,31.5-7.16,49.05a95.32,95.32,0,0,1,.76-13.36C277.22,259.78,279.62,247.35,281.76,237.51Z" style="opacity: 0.2; transform-origin: 275.702px 262.035px;" class="animable"></path></g><path d="M309.41,303.52c-11.49-38.69-9.35-76.58-15.35-85.52L260,217.49s6.71,26.27,13.11,52.08c3.55,14.27,6.67,28.49,9.19,37.9,2.82,10.52,6.22,11.84,12.39,26.81l20.71-5.86C316.86,314.07,315,314.75,309.41,303.52Z" style="fill: rgb(38, 50, 56); transform-origin: 287.939px 275.885px;" id="elqli6wulj1gq" class="animable"></path><path d="M271.78,403.6c-.06-19.58,8.52-39.27,1.44-68h-18.6c6.06,27.2,7.94,68.06,5.71,67.82Z" style="fill: rgb(255, 139, 123); transform-origin: 265.321px 369.6px;" id="elfrh27dlh8ph" class="animable"></path><path d="M259.44,404.11c1.86-4.17,1.41-11.17,1.16-13.37-.4-3.65,13-1.51,12.62.4a98.33,98.33,0,0,0-1,16C268.65,408.22,259.44,404.11,259.44,404.11Z" style="fill: rgb(224, 224, 224); transform-origin: 266.334px 398.037px;" id="ellad5366vj1d" class="animable"></path><path d="M322.62,403.79l8.72-8.66c-7.64-21.64-5.79-50.36-16.76-65.46l-17.71,4.17C307.8,358.38,322.62,403.79,322.62,403.79Z" style="fill: rgb(255, 139, 123); transform-origin: 314.105px 366.73px;" id="el5ryfxr0yjb8" class="animable"></path><path d="M321.43,402.51c.08-4.56-3.06-10.84-4.14-12.77-1.79-3.2,11.41-6.46,11.78-4.54a98.17,98.17,0,0,0,5.34,15.15C331.51,402.71,321.43,402.51,321.43,402.51Z" style="fill: rgb(224, 224, 224); transform-origin: 325.767px 393.571px;" id="el4g161tf616c" class="animable"></path><path d="M253.7,339.59l-1-8.79,23.12-.46v8.56A40.56,40.56,0,0,1,253.7,339.59Z" style="fill: rgb(199, 140, 208); transform-origin: 264.26px 335.571px;" id="elhjpt218k4ol" class="animable"></path><path d="M295.31,336.24,291.87,328l24.05-5.29,1,8.58S308.56,336.79,295.31,336.24Z" style="fill: rgb(199, 140, 208); transform-origin: 304.395px 329.494px;" id="elqgeij21ow" class="animable"></path><path d="M253.08,151.81c-.56,3-1.2,5.78-1.91,8.64s-1.46,5.7-2.32,8.54-1.76,5.68-2.81,8.53a63.83,63.83,0,0,1-3.87,8.82l-.22.4a4.5,4.5,0,0,1-.67.93,83,83,0,0,1-6.59,6.15c-2.21,1.9-4.49,3.64-6.77,5.37s-4.61,3.37-7,5-4.74,3.13-7.24,4.59a3.65,3.65,0,0,1-4.54-5.61l0,0C211.06,201,213,199,214.91,197l5.73-6c1.91-2,3.77-4,5.59-6s3.57-4,5.07-5.92l-.89,1.33a70.36,70.36,0,0,0,2.4-7.23c.74-2.61,1.43-5.29,2.1-8l2-8.18,1.93-8.17v0a7.3,7.3,0,0,1,14.28,3Z" style="fill: rgb(255, 139, 123); transform-origin: 230.708px 176.275px;" id="elcohtsjmuzqv" class="animable"></path><path d="M240.92,141.86c-6,6-7.47,15.75-7.29,25.42,4.45,5,19,11.62,19,11.62a99.75,99.75,0,0,0,1.91-24.3C253.76,142.36,244.18,138.61,240.92,141.86Z" style="fill: rgb(199, 140, 208); transform-origin: 244.126px 159.823px;" id="elmbf49xu3o0h" class="animable"></path><g id="el78tqg6wc72"><path d="M240.92,141.86c-6,6-7.47,15.75-7.29,25.42,4.45,5,19,11.62,19,11.62a99.75,99.75,0,0,0,1.91-24.3C253.76,142.36,244.18,138.61,240.92,141.86Z" style="fill: rgb(255, 255, 255); opacity: 0.2; transform-origin: 244.126px 159.823px;" class="animable"></path></g><path d="M211.88,201.5l-8.73,2.24,5.52,9.3s7.66-3,6.72-7.32Z" style="fill: rgb(255, 139, 123); transform-origin: 209.31px 207.27px;" id="elbf8ai54utyp" class="animable"></path><path d="M198.32,211.76l2.49,2.94a3.13,3.13,0,0,0,4,.66l3.88-2.32-5.52-9.3-4.41,3.58A3.12,3.12,0,0,0,198.32,211.76Z" style="fill: rgb(255, 139, 123); transform-origin: 203.14px 209.773px;" id="eln0ziay1mtbl" class="animable"></path><path d="M282.48,135.51a156.2,156.2,0,0,0-36.23,3.39c-5.28,1.2-8.19,6.07-8.43,11.48-.54,12,3.08,31.85,6,66.85,4.85,5.51,29.19,7.68,50.24.77.51-6.2,1.49-36.38,3.65-65.73A15.49,15.49,0,0,0,282.48,135.51Z" style="fill: rgb(199, 140, 208); transform-origin: 267.764px 178.902px;" id="eldahpyks0cnn" class="animable"></path><path d="M272.46,117.18l-15.62,8.69c1.57,4.76,2.24,9.18-1.75,12.15a15.22,15.22,0,0,0-1.88,1.67c-1.47,1.52-3.83,5.56,3.3,5.12,6.45-.39,13.38-1.79,16.67-4.63a4,4,0,0,0,.75-4.7C271.28,129.47,271.6,122.78,272.46,117.18Z" style="fill: rgb(255, 139, 123); transform-origin: 263.003px 131.012px;" id="elzkq3o8x1t" class="animable"></path><g id="elc2ergjqa52q"><path d="M267.7,119.83l-10.87,6c1.12,3.39,1.79,6.59.64,9.22,4.49-.82,9.35-4.34,10.11-8.14A23.25,23.25,0,0,0,267.7,119.83Z" style="opacity: 0.2; transform-origin: 262.372px 127.44px;" class="animable"></path></g><path d="M245.57,101.25c-3.18,4.52-.76,10.4,4,13.33,2.75,1.7,4.26-14.57,4.26-14.57Z" style="fill: rgb(38, 50, 56); transform-origin: 248.98px 107.357px;" id="elt5r8oc6pxoh" class="animable"></path><g id="elgd18ztyorxl"><path d="M245.57,101.25c-3.18,4.52-.76,10.4,4,13.33,2.75,1.7,4.26-14.57,4.26-14.57Z" style="fill: rgb(255, 255, 255); opacity: 0.1; transform-origin: 248.98px 107.357px;" class="animable"></path></g><path d="M270.67,103.33c1.74,8.66,3.2,13.64.05,19.12-4.75,8.25-16.35,7.06-20.65-.93-3.88-7.18-6.08-20.13,1.39-25.67A12.17,12.17,0,0,1,270.67,103.33Z" style="fill: rgb(255, 139, 123); transform-origin: 259.537px 110.775px;" id="elb6fju532ib" class="animable"></path><path d="M271.09,92.09c.23-8.22-14.17-2.36-14.17-2.36s1.58-5.35-3.91-5.52c-6.13-.2-7.58,4.53-7.3,8.74-1.85-2.35-9.92-3.51-8.93,1.11s7.86,5.49,7.86,5.49-7.55,1.56-5.64,4.81c3.17,5.4,19-.57,24.47-3.22-1.36,2,.75,4.2,2.88,6.73-1.34,3.61-1,4.21-2.27,7.86s-7,1.35-9.27,3.57c-7.92,0-6.68,7.51-4.05,11.71,2.41,3.85,12.24,1,17.36-3s2.44-8.69,1.44-11.48a12.23,12.23,0,0,1-.46-4.55c.06.12.12.24.17.37a5.62,5.62,0,0,0,4-2.41C270.37,104.11,281.52,93.44,271.09,92.09Z" style="fill: rgb(38, 50, 56); transform-origin: 256.171px 108.518px;" id="ellcchg6eyjb" class="animable"></path><g id="elukefhl9zzp"><path d="M271.09,92.09c.23-8.22-14.17-2.36-14.17-2.36s1.58-5.35-3.91-5.52c-6.13-.2-7.58,4.53-7.3,8.74-1.85-2.35-9.92-3.51-8.93,1.11s7.86,5.49,7.86,5.49-7.55,1.56-5.64,4.81c3.17,5.4,19-.57,24.47-3.22-1.36,2,.75,4.2,2.88,6.73-1.34,3.61-1,4.21-2.27,7.86s-7,1.35-9.27,3.57c-7.92,0-6.68,7.51-4.05,11.71,2.41,3.85,12.24,1,17.36-3s2.44-8.69,1.44-11.48a12.23,12.23,0,0,1-.46-4.55c.06.12.12.24.17.37a5.62,5.62,0,0,0,4-2.41C270.37,104.11,281.52,93.44,271.09,92.09Z" style="fill: rgb(255, 255, 255); opacity: 0.1; transform-origin: 256.171px 108.518px;" class="animable"></path></g><path d="M256.28,124.06a6.76,6.76,0,0,1-1.35.24.21.21,0,0,1-.24-.22.26.26,0,0,1,.23-.26,6.91,6.91,0,0,0,5.15-3,.24.24,0,0,1,.33-.1.24.24,0,0,1,.07.33A7.25,7.25,0,0,1,256.28,124.06Z" style="fill: rgb(255, 139, 123); transform-origin: 257.599px 122.496px;" id="el6zqpoeftgm6" class="animable"></path><path d="M276.8,111.93a8.29,8.29,0,0,1-3.44,5.25c-2.35,1.56-4.36-.46-4.39-3.24,0-2.51,1.15-6.34,3.85-6.78S277.31,109.27,276.8,111.93Z" style="fill: rgb(255, 139, 123); transform-origin: 272.928px 112.417px;" id="elz3mz3xx03kl" class="animable"></path><path d="M258.19,110.78c.18.7,0,1.35-.49,1.47s-1-.35-1.16-1,0-1.35.49-1.47S258,110.09,258.19,110.78Z" style="fill: rgb(38, 50, 56); transform-origin: 257.369px 111.014px;" id="ela942fyurk6e" class="animable"></path><path d="M250.07,113.16c.19.69,0,1.35-.49,1.46s-1-.35-1.16-1,0-1.35.49-1.47S249.89,112.46,250.07,113.16Z" style="fill: rgb(38, 50, 56); transform-origin: 249.251px 113.383px;" id="elk8lxh705oxf" class="animable"></path><path d="M252.55,113s-.13,4.23-1.36,6.61c3,.48,3.62-.35,3.62-.35Z" style="fill: rgb(255, 86, 82); transform-origin: 253px 116.38px;" id="elu4iyaoe79j" class="animable"></path><path d="M259.05,108a.44.44,0,0,0,.18-.12.43.43,0,0,0-.07-.6,4.21,4.21,0,0,0-3.76-.88.42.42,0,1,0,.26.8h0a3.39,3.39,0,0,1,3,.73A.44.44,0,0,0,259.05,108Z" style="fill: rgb(38, 50, 56); transform-origin: 257.214px 107.146px;" id="el0qpzj60p9l1h" class="animable"></path><path d="M245.79,110.17a.43.43,0,0,0,.33-.24,3.3,3.3,0,0,1,2.37-1.9.42.42,0,0,0,.36-.47.43.43,0,0,0-.48-.36,4.15,4.15,0,0,0-3,2.36.43.43,0,0,0,.2.57A.41.41,0,0,0,245.79,110.17Z" style="fill: rgb(38, 50, 56); transform-origin: 247.091px 108.684px;" id="elz4ujaq1zkor" class="animable"></path><path d="M294.14,146.54a214.17,214.17,0,0,1-1.69,22.06c-.48,3.69-1.07,7.38-1.91,11.17-.43,1.89-.89,3.81-1.55,5.83-.33,1-.7,2-1.18,3.15a19.2,19.2,0,0,1-2.12,3.74c-.12.17-.31.39-.46.57l-.24.28-.15.15-.62.63c-.41.42-.82.79-1.23,1.16s-.83.73-1.25,1.06-.83.68-1.26,1a51.94,51.94,0,0,1-5.1,3.31,83.18,83.18,0,0,1-10.39,5c-3.5,1.39-7,2.6-10.57,3.64a109.33,109.33,0,0,1-10.81,2.66,3.63,3.63,0,0,1-2.19-6.87l.1,0c6.33-2.9,12.78-6,18.75-9.33a90.82,90.82,0,0,0,8.53-5.35,36.76,36.76,0,0,0,3.67-2.92c.29-.25.54-.51.8-.75s.52-.5.75-.75.48-.5.67-.74l.3-.37.08-.09,0,0s-.06.06-.05,0,.2-.46.37-1,.38-1.23.56-1.94c.34-1.44.66-3,.92-4.66.52-3.27.9-6.69,1.23-10.14.64-6.89,1.1-14,1.48-20.92V146a7.29,7.29,0,0,1,14.57.59Z" style="fill: rgb(255, 139, 123); transform-origin: 266.722px 175.51px;" id="el5oh5nloydth" class="animable"></path><path d="M282.13,138.61c-5.23,6.66-5.58,15.2-5.3,28.48,3.52,3.38,16.9,8.42,16.9,8.42s5.14-15.71,4-26.52C296.59,137.73,285,135,282.13,138.61Z" style="fill: rgb(199, 140, 208); transform-origin: 287.328px 156.313px;" id="el8b4smur98b9" class="animable"></path><g id="elkw5i5dn7es"><path d="M282.13,138.61c-5.23,6.66-5.58,15.2-5.3,28.48,3.52,3.38,16.9,8.42,16.9,8.42s5.14-15.71,4-26.52C296.59,137.73,285,135,282.13,138.61Z" style="fill: rgb(255, 255, 255); opacity: 0.2; transform-origin: 287.328px 156.313px;" class="animable"></path></g><path d="M244,203.9l-8.36,3.37,6.69,8.5s7.2-4,5.71-8.14Z" style="fill: rgb(255, 139, 123); transform-origin: 241.942px 209.835px;" id="el5yg7z14lrdm" class="animable"></path><path d="M231.87,215.86l2.84,2.58a3.13,3.13,0,0,0,4,.13l3.53-2.8-6.69-8.5-3.9,4.13A3.12,3.12,0,0,0,231.87,215.86Z" style="fill: rgb(255, 139, 123); transform-origin: 236.528px 213.25px;" id="elbqjemfhkkek" class="animable"></path><path d="M273.46,401.93l1.2,12.34a1.73,1.73,0,0,1-1.73,1.86c-5.39,0-8.8-.19-14-.27-6.1-.09-9.93.46-17.08.35-4.32-.07-5-4.29-3.16-4.83,8.71-2.6,13.55-4.37,18-9.59,0,0-2.17-4,.32-6.22s9.21-.07,9.72,2.56-.51,2.46-.51,2.46S271,399,273.46,401.93Z" style="fill: rgb(38, 50, 56); transform-origin: 256.198px 405.435px;" id="elnaionqja8w" class="animable"></path><path d="M330.74,394.46a3.59,3.59,0,0,1,3.4,2.17l4.5,9.94a1.75,1.75,0,0,1-1,2.32c-5.1,1.73-2.15.53-7.12,2.14-5.8,1.87-11,5.4-20,5.4-4.33,0-4.86-4.33-3.06-4.9,11.45-3.59,10.05-10.23,12.29-11.7,0,0-4.19-2.62-3.24-5.79s7.64-3.53,9.89-2.09c2.88,1.84,2,3.67,2,3.67A3.62,3.62,0,0,1,330.74,394.46Z" style="fill: rgb(38, 50, 56); transform-origin: 322.634px 403.786px;" id="elqaibec5a24" class="animable"></path></g><defs>     <filter id="active" height="200%">         <feMorphology in="SourceAlpha" result="DILATED" operator="dilate" radius="2"></feMorphology>                <feFlood flood-color="#32DFEC" flood-opacity="1" result="PINK"></feFlood>        <feComposite in="PINK" in2="DILATED" operator="in" result="OUTLINE"></feComposite>        <feMerge>            <feMergeNode in="OUTLINE"></feMergeNode>            <feMergeNode in="SourceGraphic"></feMergeNode>        </feMerge>    </filter>    <filter id="hover" height="200%">        <feMorphology in="SourceAlpha" result="DILATED" operator="dilate" radius="2"></feMorphology>                <feFlood flood-color="#ff0000" flood-opacity="0.5" result="PINK"></feFlood>        <feComposite in="PINK" in2="DILATED" operator="in" result="OUTLINE"></feComposite>        <feMerge>            <feMergeNode in="OUTLINE"></feMergeNode>            <feMergeNode in="SourceGraphic"></feMergeNode>        </feMerge>            <feColorMatrix type="matrix" values="0   0   0   0   0                0   1   0   0   0                0   0   0   0   0                0   0   0   1   0 "></feColorMatrix>    </filter></defs></svg>